<?xml version="1.0" encoding="utf-8"?>
<!-- Generator: Adobe Illustrator 19.2.1, SVG Export Plug-In . SVG Version: 6.00 Build 0)  -->
<svg version="1.1" id="Layer_1" xmlns="http://www.w3.org/2000/svg" xmlns:xlink="http://www.w3.org/1999/xlink" x="0px" y="0px"
	 viewBox="0 0 324 120.354" style="enable-background:new 0 0 324 120.354;" xml:space="preserve">
<g>
	<g>
		<g>
			<g>
				<path style="fill:#5C6670;" d="M99.593,49.746c0.164,0.285,0.468,0.46,0.797,0.46h4.057c0.329,0,0.633-0.175,0.797-0.46
					l2.028-3.513c0.164-0.285,0.164-0.636,0-0.921l-2.028-3.513c-0.164-0.285-0.469-0.46-0.797-0.46h-4.057
					c-0.329,0-0.632,0.175-0.797,0.46l-2.028,3.513c-0.164,0.285-0.164,0.636,0,0.921L99.593,49.746z"/>
			</g>
			<g>
				<path style="fill:#5C6670;" d="M113.587,53.107c-1.056-1.234-2.915-1.38-4.15-0.324l-7.019,6.004l-7.019-6.004
					c-1.232-1.056-3.092-0.91-4.15,0.324c-1.056,1.236-0.911,3.094,0.325,4.151l7.676,6.566v15.684c0,1.709,1.385,3.094,3.094,3.094
					s3.094-1.385,3.094-3.094V63.953l7.825-6.694C114.498,56.201,114.643,54.343,113.587,53.107z"/>
			</g>
		</g>
		<g>
			<path style="fill:#5C6670;" d="M129.619,12.146l-1.288-2.231c-0.135-0.234-0.386-0.379-0.656-0.379h-2.576
				c-0.271,0-0.521,0.144-0.656,0.379l-1.288,2.231c-0.135,0.234-0.135,0.523,0,0.758l1.288,2.231
				c0.135,0.234,0.385,0.379,0.656,0.379h2.576c0.271,0,0.521-0.144,0.656-0.379l1.288-2.231
				C129.754,12.669,129.754,12.38,129.619,12.146z"/>
			<path style="fill:#5C6670;" d="M99.539,0.48C99.367,0.183,99.051,0,98.708,0h-4.235c-0.343,0-0.66,0.183-0.831,0.48l-2.118,3.668
				c-0.171,0.297-0.171,0.663,0,0.959l2.118,3.668c0.171,0.297,0.488,0.48,0.831,0.48h4.235c0.343,0,0.659-0.183,0.831-0.48
				l2.117-3.668c0.172-0.297,0.172-0.663,0-0.959L99.539,0.48z"/>
			<path style="fill:#5C6670;" d="M75.113,11.595c-0.161-0.279-0.459-0.451-0.782-0.451h-2.271c-0.323,0-0.62,0.172-0.782,0.451
				l-1.135,1.967c-0.161,0.279-0.161,0.623,0,0.903l1.135,1.967c0.161,0.279,0.459,0.451,0.782,0.451h2.271
				c0.322,0,0.62-0.172,0.782-0.451l1.135-1.967c0.161-0.279,0.161-0.623,0-0.903L75.113,11.595z"/>
			<path style="fill:#5C6670;" d="M71.809,41.952c-0.174-0.301-0.495-0.486-0.842-0.486l-3.103,0c-0.348,0-0.669,0.185-0.842,0.486
				l-1.551,2.687c-0.174,0.301-0.174,0.672,0,0.972l1.552,2.687c0.173,0.301,0.495,0.486,0.842,0.486l3.103,0
				c0.348,0,0.669-0.185,0.843-0.486l1.551-2.687c0.174-0.301,0.174-0.672,0-0.973L71.809,41.952z"/>
			<path style="fill:#5C6670;" d="M137.23,37.984l-1.582-2.74c-0.146-0.253-0.417-0.41-0.71-0.41h-3.163
				c-0.293,0-0.563,0.156-0.71,0.41l-1.582,2.74c-0.147,0.254-0.147,0.566,0,0.82l1.582,2.74c0.146,0.253,0.417,0.41,0.71,0.41
				h3.163c0.293,0,0.563-0.156,0.71-0.41l1.582-2.74C137.376,38.55,137.376,38.238,137.23,37.984z"/>
		</g>
		<path style="fill:#00ADBB;" d="M132.769,25.342l-3.324-5.759c-0.161-0.278-0.457-0.449-0.778-0.449h-6.65
			c-0.235,0-0.437,0.115-0.602,0.273l-4.982-5.906l1.222-2.115c0.164-0.285,0.164-0.636,0-0.921l-2.213-3.831
			c-0.164-0.285-0.468-0.46-0.797-0.46h-4.424c-0.329,0-0.633,0.175-0.798,0.46l-2.212,3.831c-0.013,0.022-0.008,0.048-0.019,0.071
			l-15.797,3.179l-1.327-2.297c-0.161-0.278-0.457-0.449-0.778-0.449h-6.442c-0.321,0-0.617,0.171-0.778,0.449l-3.221,5.578
			c-0.16,0.278-0.16,0.621,0,0.899l0.895,1.55l-5.085,5.455c-0.081-0.031-0.162-0.068-0.252-0.068h-3.502
			c-0.256,0-0.493,0.137-0.62,0.358l-1.751,3.033c-0.129,0.222-0.129,0.495,0,0.717l1.751,3.032c0.128,0.222,0.364,0.358,0.62,0.358
			h1.231l5.885,15.019c-0.315,0.006-0.604,0.172-0.762,0.445l-2.752,4.767c-0.16,0.278-0.16,0.621,0,0.899l2.752,4.767
			c0.161,0.278,0.457,0.449,0.779,0.449h5.504c0.321,0,0.618-0.171,0.778-0.449l2.752-4.767c0.161-0.278,0.161-0.621,0-0.899
			l-1.17-2.027l11.463-15.841c0.175,0.247,0.448,0.41,0.754,0.41h4.952c0.336,0,0.646-0.179,0.814-0.47l0.542-0.938l12.753,12.098
			l-0.873,1.513c-0.168,0.291-0.168,0.649,0,0.94l2.476,4.288c0.168,0.291,0.478,0.47,0.814,0.47h4.951
			c0.336,0,0.646-0.179,0.814-0.47l2.475-4.288c0.169-0.291,0.169-0.649,0-0.94l-2.475-4.288c-0.168-0.291-0.479-0.47-0.814-0.47
			h-0.957l3.243-10.098h1.835c0.321,0,0.617-0.171,0.778-0.449l3.324-5.759C132.93,25.962,132.93,25.62,132.769,25.342z
			 M85.053,49.064l-0.734-1.271c-0.16-0.278-0.457-0.449-0.778-0.449h-3.859L73.799,32.33h0.607c0.256,0,0.494-0.137,0.621-0.358
			l1.751-3.032c0.128-0.222,0.128-0.495,0-0.717l-1.186-2.054l4.961-5.321l1.517,2.626c0.161,0.278,0.457,0.449,0.778,0.449h6.442
			c0.321,0,0.617-0.171,0.778-0.449l0.396-0.688l5.223,5.131l-0.859,1.488c-0.168,0.291-0.168,0.649,0,0.94l1.674,2.899
			L85.053,49.064z M103.883,25.115c-0.168-0.291-0.478-0.47-0.814-0.47h-4.952c-0.335,0-0.646,0.179-0.813,0.47l-0.818,1.416
			l-5.222-5.131l2.025-3.507c0.16-0.278,0.16-0.621,0-0.899l-1.078-1.866l15.375-3.094l1.836,3.181
			c0.165,0.285,0.469,0.46,0.798,0.46h4.424c0.329,0,0.633-0.176,0.797-0.46l0.167-0.29l4.938,5.854l-2.633,4.561
			c-0.078,0.136-0.116,0.287-0.117,0.438l-11.936,2.758L103.883,25.115z M121.961,42.547h-0.306h-2.061
			c-0.336,0-0.646,0.179-0.814,0.47l-0.807,1.398L105.22,32.317l1.139-1.973c0.063-0.11,0.08-0.233,0.095-0.355l12.019-2.777
			l2.765,4.788c0.16,0.278,0.456,0.449,0.778,0.449h2.881h0.306L121.961,42.547z"/>
		<g>
			<path style="fill:#A4A9AD;" d="M108.281,18.503c-0.136-0.235-0.386-0.379-0.656-0.379h-2.21c-0.271,0-0.521,0.144-0.657,0.379
				l-1.105,1.914c-0.136,0.235-0.136,0.523,0,0.758l1.105,1.914c0.136,0.234,0.386,0.379,0.657,0.379h2.21
				c0.271,0,0.521-0.144,0.656-0.379l1.105-1.914c0.136-0.234,0.136-0.523,0-0.758L108.281,18.503z"/>
			<path style="fill:#A4A9AD;" d="M86.534,31.408c-0.165-0.285-0.469-0.46-0.797-0.46H81.68c-0.329,0-0.632,0.175-0.797,0.46
				l-2.028,3.513c-0.164,0.285-0.164,0.636,0,0.921l2.028,3.513c0.165,0.285,0.469,0.46,0.797,0.46h4.057
				c0.329,0,0.632-0.176,0.797-0.46l2.028-3.513c0.164-0.285,0.164-0.636,0-0.921L86.534,31.408z"/>
			<path style="fill:#A4A9AD;" d="M119.07,34.269l-0.948-1.642c-0.136-0.234-0.386-0.379-0.657-0.379h-1.895
				c-0.271,0-0.521,0.145-0.657,0.379l-0.947,1.642c-0.136,0.235-0.136,0.524,0,0.758l0.947,1.642
				c0.136,0.235,0.386,0.379,0.657,0.379h1.895c0.271,0,0.521-0.144,0.657-0.379l0.948-1.642
				C119.205,34.793,119.205,34.504,119.07,34.269z"/>
		</g>
	</g>
	<g>
		<path style="fill:#5C6670;" d="M201.939,91.018L201.939,91.018c-0.494-0.508-1.124-0.766-1.873-0.766
			c-0.75,0-1.381,0.257-1.874,0.765c-0.491,0.506-0.74,1.141-0.74,1.889v10.494c0,1.46-0.365,2.591-1.085,3.36
			c-0.716,0.766-1.749,1.154-3.07,1.154c-1.351,0-2.386-0.35-3.075-1.04c-0.69-0.688-1.04-1.858-1.04-3.474V92.907
			c0-0.747-0.249-1.382-0.741-1.889c-0.494-0.508-1.124-0.765-1.873-0.765c-0.75,0-1.38,0.257-1.874,0.765
			c-0.491,0.506-0.741,1.141-0.741,1.889v11.936c0,1.522,0.304,2.895,0.904,4.08c0.601,1.191,1.463,2.136,2.561,2.808
			c1.096,0.672,2.373,1.012,3.795,1.012c2.739,0,4.847-0.757,6.276-2.252c-0.024,1.82-0.451,3.12-1.272,3.868
			c-0.851,0.774-2.211,1.166-4.043,1.166c-0.545,0-1.074-0.059-1.575-0.175c-0.507-0.117-0.996-0.268-1.451-0.45
			c-0.465-0.186-0.791-0.319-0.993-0.405c-0.263-0.087-0.541-0.132-0.828-0.132c-0.501,0-0.97,0.171-1.392,0.507
			c-0.422,0.333-0.722,0.821-0.89,1.44c-0.087,0.26-0.131,0.498-0.131,0.707c0,1.075,0.703,1.923,2.094,2.52
			c0.6,0.245,1.391,0.445,2.351,0.594c0.957,0.147,1.904,0.222,2.816,0.222c3.16,0,5.726-0.818,7.627-2.433
			c1.91-1.624,2.878-4.232,2.878-7.751V92.907C202.68,92.16,202.431,91.524,201.939,91.018z"/>
		<path style="fill:#5C6670;" d="M16.393,106.406c-0.375,0-0.7,0.06-0.967,0.178c-0.254,0.114-0.529,0.276-0.818,0.482
			c-0.271,0.194-0.483,0.33-0.632,0.404c-0.608,0.304-1.56,0.458-2.829,0.458c-1.719,0-3.149-0.617-4.25-1.833
			c-1.107-1.222-1.668-2.785-1.668-4.645c0-1.939,0.554-3.529,1.647-4.725c1.088-1.19,2.619-1.794,4.551-1.794
			c0.301,0,0.712,0.053,1.219,0.157c0.499,0.102,0.879,0.217,1.121,0.337c0.23,0.128,0.47,0.291,0.713,0.482
			c0.265,0.21,0.543,0.381,0.825,0.507c0.296,0.134,0.665,0.199,1.129,0.199c0.626,0,1.14-0.249,1.528-0.741
			c0.375-0.478,0.566-1.04,0.566-1.672c0-1.255-0.74-2.268-2.198-3.012c-1.413-0.72-3.292-1.085-5.583-1.085
			c-2.056,0-3.925,0.488-5.555,1.451c-1.629,0.965-2.916,2.32-3.824,4.028C0.46,97.287,0,99.261,0,101.45
			c0,2.107,0.439,4.046,1.304,5.762c0.869,1.723,2.114,3.092,3.703,4.07c1.588,0.978,3.451,1.473,5.538,1.473
			c1.4,0,2.739-0.171,3.981-0.508c1.249-0.339,2.27-0.803,3.035-1.377c0.8-0.6,1.206-1.263,1.206-1.971
			c0-0.718-0.214-1.318-0.635-1.784C17.704,106.645,17.119,106.406,16.393,106.406z"/>
		<path style="fill:#5C6670;" d="M149.519,90.092c-1.421,0-2.744,0.361-3.933,1.072c-0.987,0.59-1.827,1.284-2.505,2.067v-0.084
			c0-0.747-0.249-1.383-0.741-1.89c-0.494-0.507-1.124-0.765-1.873-0.765c-0.751,0-1.381,0.258-1.874,0.765
			c-0.491,0.506-0.741,1.142-0.741,1.889v19.196h5.228V99.435c0-1.297,0.424-2.386,1.261-3.236c0.836-0.849,2.012-1.28,3.495-1.28
			c1.417,0,2.424,0.395,2.994,1.175c0.584,0.801,0.88,1.925,0.88,3.34v12.908h5.229V99.435c0-2.885-0.537-5.18-1.596-6.823
			C154.265,90.94,152.305,90.092,149.519,90.092z"/>
		<path style="fill:#5C6670;" d="M74.678,92.615c-1.052-1.674-2.958-2.523-5.666-2.523c-1.613,0-3.077,0.472-4.35,1.403
			c-1.113,0.814-1.989,1.725-2.61,2.713c-1.034-2.732-3.218-4.116-6.498-4.116c-1.396,0-2.68,0.354-3.816,1.053
			c-0.94,0.578-1.752,1.263-2.422,2.044v-0.042c0-0.747-0.249-1.383-0.741-1.89c-0.494-0.507-1.124-0.765-1.873-0.765
			c-0.75,0-1.381,0.258-1.874,0.765c-0.491,0.506-0.74,1.142-0.74,1.889l0,19.196h5.228l0-12.908c0-1.299,0.405-2.389,1.205-3.239
			c0.795-0.847,1.923-1.276,3.351-1.276c1.361,0,2.32,0.394,2.85,1.17c0.547,0.803,0.825,1.928,0.825,3.346l0,12.908h5.228l0-12.908
			c0-1.299,0.405-2.389,1.205-3.239c0.795-0.847,1.923-1.276,3.351-1.276c1.36,0,2.319,0.394,2.85,1.17
			c0.547,0.802,0.824,1.928,0.824,3.346l0,12.908h5.229l0-12.908C76.232,96.552,75.709,94.257,74.678,92.615z"/>
		<path style="fill:#5C6670;" d="M162.855,83.665c-0.935,0-1.605,0.157-2.047,0.481c-0.456,0.335-0.687,0.918-0.687,1.732v0.761
			c0,0.813,0.216,1.395,0.641,1.727c0.415,0.327,1.086,0.487,2.053,0.487c0.988,0,1.678-0.151,2.107-0.461
			c0.443-0.322,0.668-0.911,0.668-1.753v-0.761c0-0.812-0.216-1.393-0.642-1.728C164.531,83.824,163.847,83.665,162.855,83.665z"/>
		<path style="fill:#5C6670;" d="M110.405,92.615c-1.052-1.674-2.958-2.523-5.666-2.523c-1.613,0-3.076,0.472-4.35,1.403
			c-1.113,0.814-1.989,1.725-2.61,2.713c-1.034-2.732-3.218-4.116-6.498-4.116c-1.396,0-2.68,0.354-3.816,1.053
			c-0.94,0.578-1.752,1.263-2.422,2.044v-0.042c0-0.747-0.249-1.383-0.741-1.89c-0.494-0.507-1.124-0.765-1.873-0.765
			c-0.75,0-1.381,0.258-1.874,0.765c-0.491,0.506-0.74,1.142-0.74,1.889l0,19.196h5.228l0-12.908c0-1.299,0.405-2.389,1.205-3.239
			c0.795-0.847,1.923-1.276,3.351-1.276c1.361,0,2.32,0.394,2.85,1.17c0.547,0.803,0.825,1.928,0.825,3.346l0.001,12.908h5.228
			l0-12.908c0-1.299,0.405-2.389,1.205-3.239c0.795-0.847,1.923-1.276,3.351-1.276c1.36,0,2.319,0.394,2.85,1.17
			c0.547,0.802,0.824,1.928,0.824,3.346l0,12.908h5.229l0-12.908C111.96,96.552,111.437,94.257,110.405,92.615z"/>
		<path style="fill:#5C6670;" d="M36.212,91.542c-1.695-0.962-3.583-1.45-5.611-1.45c-2.056,0-3.951,0.488-5.632,1.45
			c-1.681,0.963-3.029,2.324-4.004,4.044c-0.975,1.721-1.47,3.69-1.47,5.853c0,2.163,0.495,4.131,1.47,5.851
			c0.976,1.722,2.323,3.076,4.005,4.025c1.678,0.948,3.573,1.429,5.631,1.429c2.031,0,3.919-0.48,5.61-1.428
			c1.696-0.95,3.05-2.303,4.026-4.025c0.975-1.719,1.47-3.688,1.47-5.851c0-2.163-0.495-4.133-1.47-5.853
			C39.261,93.866,37.907,92.505,36.212,91.542z M35.682,104.822c-0.527,0.977-1.243,1.745-2.127,2.283
			c-0.884,0.537-1.878,0.81-2.954,0.81c-1.077,0-2.071-0.273-2.955-0.81c-0.885-0.538-1.601-1.307-2.127-2.283
			c-0.528-0.978-0.796-2.116-0.796-3.384c0-1.268,0.268-2.414,0.796-3.406h0c0.527-0.989,1.242-1.764,2.127-2.302
			c0.885-0.538,1.879-0.811,2.955-0.811c1.076,0,2.07,0.273,2.954,0.811c0.883,0.537,1.599,1.312,2.126,2.302
			c0.528,0.994,0.796,2.14,0.796,3.406C36.478,102.705,36.21,103.843,35.682,104.822z"/>
		<path style="fill:#5C6670;" d="M162.856,90.833c-0.75,0-1.38,0.258-1.873,0.765c-0.492,0.506-0.741,1.142-0.741,1.89v18.856h5.229
			V93.487c0-0.748-0.249-1.384-0.741-1.89C164.236,91.09,163.605,90.833,162.856,90.833z"/>
		<path style="fill:#5C6670;" d="M178.717,95.721c0.694,0,1.283-0.229,1.749-0.68c0.468-0.454,0.705-1.024,0.705-1.694
			c0-0.695-0.236-1.284-0.703-1.751c-0.467-0.466-1.056-0.703-1.751-0.703h-2.633v-4.567c0-0.746-0.249-1.382-0.741-1.89
			c-0.494-0.507-1.111-0.765-1.834-0.765c-0.748,0-1.385,0.256-1.891,0.763c-0.506,0.507-0.763,1.143-0.763,1.892v4.567h-1.631
			c-0.695,0-1.283,0.229-1.749,0.681c-0.468,0.453-0.705,1.023-0.705,1.693c0,0.697,0.236,1.286,0.703,1.751
			c0.466,0.466,1.055,0.703,1.751,0.703h1.631v10.844c0,2.364,0.606,3.94,1.802,4.685c1.163,0.725,2.609,1.093,4.297,1.093
			c1.025,0,1.958-0.26,2.775-0.773c0.85-0.533,1.28-1.206,1.28-2.001c0-0.636-0.172-1.16-0.511-1.559
			c-0.348-0.407-0.746-0.614-1.182-0.614c-0.322,0-0.659,0.073-0.979,0.208c-0.353,0.101-0.63,0.152-0.823,0.152
			c-0.453,0-0.811-0.111-1.064-0.329c-0.244-0.21-0.367-0.567-0.367-1.062V95.721H178.717z"/>
		<path style="fill:#5C6670;" d="M133.708,91.258L133.708,91.258c-0.494-0.508-1.124-0.765-1.873-0.765
			c-0.75,0-1.381,0.258-1.874,0.765c-0.491,0.506-0.74,1.141-0.74,1.889l0,10.763c0,1.297-0.424,2.386-1.261,3.237
			c-0.836,0.849-2.012,1.279-3.495,1.279c-1.417,0-2.424-0.395-2.994-1.175c-0.584-0.801-0.88-1.925-0.88-3.341l-0.001-10.763
			c0-0.747-0.249-1.383-0.74-1.89c-0.494-0.507-1.124-0.765-1.873-0.765c-0.751,0-1.381,0.258-1.874,0.765
			c-0.491,0.506-0.74,1.141-0.74,1.889l0.001,10.763v0.523c0,0.096,0.006,0.189,0.013,0.282l0.01,0.163c0,0,0,0.001,0,0.001
			l0.01,0.189c0.002,0.033,0.004,0.066,0.006,0.099c0.008,0.148,0.019,0.297,0.034,0.442c0.001,0.017,0.002,0.035,0.004,0.053
			c0,0.002,0,0.004,0.001,0.005c0,0.001,0,0.002,0,0.002h0c0.181,2.103,0.718,3.303,1.525,4.555
			c1.078,1.672,3.038,2.521,5.825,2.521c2.24,0,4.847-1.33,6.432-2.728v2.328h5.228l-0.001-19.196
			C134.449,92.399,134.199,91.764,133.708,91.258z"/>
	</g>
	<g>
		<path style="fill:#5C6670;" d="M222.002,93.293c-1.392-0.875-2.958-1.319-4.653-1.319c-1.498,0-2.899,0.393-4.165,1.168
			c-0.927,0.568-1.71,1.276-2.336,2.113v-9.893c0-0.014-0.007-0.024-0.007-0.038c-0.009-0.393-0.141-0.731-0.407-0.998
			c-0.275-0.274-0.623-0.413-1.034-0.413c-0.412,0-0.76,0.139-1.035,0.414c-0.265,0.266-0.397,0.603-0.406,0.997
			c0,0.013-0.007,0.024-0.007,0.038l-0.002,26.799h2.897l0.002-2.832c0.676,0.831,1.491,1.53,2.434,2.084
			c1.252,0.736,2.632,1.109,4.103,1.109c1.7,0,3.261-0.458,4.64-1.36c1.373-0.898,2.466-2.153,3.249-3.73
			c0.778-1.569,1.172-3.332,1.172-5.24c0-1.933-0.395-3.697-1.173-5.242C224.49,95.399,223.389,94.168,222.002,93.293z
			 M222.781,106.061c-0.556,1.148-1.335,2.065-2.314,2.726c-0.973,0.656-2.085,0.988-3.306,0.988c-1.248,0-2.373-0.327-3.345-0.972
			c-0.979-0.648-1.756-1.558-2.311-2.706c-0.56-1.156-0.844-2.469-0.844-3.905c0-1.437,0.278-2.745,0.826-3.888
			c0.542-1.132,1.318-2.021,2.305-2.644c0.987-0.623,2.121-0.939,3.37-0.939c1.222,0,2.335,0.321,3.31,0.955
			c0.977,0.636,1.755,1.528,2.31,2.65c0.56,1.132,0.843,2.433,0.843,3.866C223.625,103.602,223.341,104.904,222.781,106.061z"/>
		<path style="fill:#5C6670;" d="M240.035,92.308C240.035,92.308,240.035,92.308,240.035,92.308
			c-0.444-0.222-0.945-0.334-1.496-0.334c-1.636,0.027-3.078,0.535-4.287,1.51c-0.828,0.667-1.517,1.463-2.058,2.376v-1.877
			c0-0.412-0.139-0.76-0.413-1.035c-0.275-0.275-0.623-0.414-1.035-0.414c-0.413,0-0.761,0.139-1.035,0.414
			c-0.274,0.274-0.414,0.622-0.414,1.035l-0.002,18.179h2.897l0.002-10.678c0-1.086,0.283-2.177,0.84-3.244
			c0.56-1.073,1.283-1.96,2.15-2.636c0.844-0.659,1.699-0.993,2.541-0.993c0.284,0,0.594,0.057,0.919,0.169
			c0.527,0.181,0.722,0.205,0.835,0.205c0.366,0,0.685-0.142,0.949-0.421c0.257-0.273,0.388-0.631,0.388-1.065
			C240.814,93.133,240.678,92.631,240.035,92.308z"/>
		<path style="fill:#5C6670;" d="M257.912,92.423c-0.417,0-0.767,0.148-1.041,0.438c-0.27,0.285-0.407,0.638-0.407,1.047v1.193
			c-0.601-0.789-1.373-1.459-2.305-2c-1.29-0.748-2.726-1.127-4.27-1.127c-1.672,0-3.219,0.444-4.598,1.32
			c-1.376,0.875-2.475,2.104-3.27,3.655c-0.792,1.545-1.193,3.309-1.193,5.244c0,1.934,0.395,3.704,1.173,5.259
			c0.782,1.564,1.874,2.812,3.249,3.71c1.378,0.903,2.952,1.36,4.677,1.36c1.523,0,2.95-0.406,4.241-1.206
			c0.929-0.576,1.698-1.255,2.297-2.025l-0.002,2.87h2.897l0.002-18.253c0-0.409-0.137-0.761-0.407-1.047
			C258.678,92.57,258.328,92.423,257.912,92.423z M255.769,106.098c-0.556,1.147-1.333,2.057-2.311,2.706c0,0,0,0,0,0
			c-0.972,0.645-2.085,0.972-3.307,0.972c-1.248,0-2.374-0.327-3.345-0.972c-0.978-0.648-1.749-1.557-2.291-2.703
			c-0.548-1.155-0.827-2.47-0.827-3.908c0-1.435,0.284-2.736,0.843-3.866c0.556-1.122,1.333-2.014,2.31-2.65
			c0.974-0.633,2.088-0.955,3.31-0.955c1.221,0,2.334,0.327,3.307,0.972c0.979,0.65,1.757,1.554,2.312,2.688
			c0.56,1.144,0.844,2.426,0.844,3.811C256.613,103.627,256.329,104.941,255.769,106.098z"/>
		<path style="fill:#5C6670;" d="M272.764,91.974c-1.369,0-2.723,0.372-4.024,1.107c-0.961,0.542-1.766,1.196-2.402,1.949v-1.047
			c0-0.412-0.139-0.76-0.414-1.035c-0.275-0.275-0.623-0.414-1.035-0.414c-0.413,0-0.761,0.139-1.035,0.414
			c-0.274,0.274-0.413,0.622-0.413,1.035v18.179h2.897v-12.32c0-0.895,0.281-1.742,0.834-2.515c0.563-0.786,1.309-1.424,2.216-1.896
			c0.906-0.471,1.879-0.71,2.89-0.71c1.579,0,2.754,0.467,3.494,1.389c0.757,0.943,1.141,2.199,1.141,3.731v12.32h2.896V99.729
			c0-2.305-0.57-4.188-1.695-5.598C276.971,92.7,275.171,91.974,272.764,91.974z"/>
		<path style="fill:#5C6670;" d="M300.686,84.29c-0.275-0.274-0.623-0.413-1.035-0.413c-0.413,0-0.761,0.14-1.035,0.414
			c-0.274,0.274-0.414,0.622-0.414,1.035v9.835c-0.616-0.8-1.4-1.484-2.341-2.04c-1.292-0.761-2.716-1.146-4.235-1.146
			c-1.673,0-3.221,0.451-4.6,1.34c-1.374,0.886-2.474,2.128-3.269,3.691c-0.791,1.557-1.193,3.315-1.193,5.224
			c0,1.935,0.401,3.705,1.193,5.262c0.794,1.564,1.894,2.805,3.269,3.691c1.377,0.889,2.938,1.34,4.637,1.34
			c1.551,0,2.986-0.42,4.265-1.247c0.916-0.592,1.677-1.287,2.273-2.073v2.96h2.897V85.325
			C301.099,84.913,300.96,84.565,300.686,84.29C300.686,84.29,300.686,84.29,300.686,84.29z M297.508,106.135
			c-0.555,1.146-1.332,2.05-2.309,2.685c-0.973,0.633-2.086,0.955-3.31,0.955c-1.223,0-2.336-0.327-3.308-0.972
			c-0.979-0.649-1.756-1.553-2.311-2.688c-0.56-1.142-0.844-2.45-0.844-3.886c0-1.411,0.284-2.706,0.844-3.848
			c0.555-1.134,1.333-2.039,2.311-2.688c0.973-0.645,2.086-0.972,3.308-0.972c1.221,0,2.334,0.327,3.307,0.972
			c0.979,0.65,1.757,1.554,2.312,2.688c0.56,1.144,0.844,2.439,0.844,3.848C298.352,103.665,298.068,104.979,297.508,106.135z"/>
		<path style="fill:#5C6670;" d="M315.743,102.044c-0.864-0.406-1.964-0.777-3.268-1.103c-1.627-0.413-2.871-0.877-3.697-1.38
			c-0.767-0.467-1.161-1.125-1.205-1.996c0-0.986,0.36-1.702,1.102-2.188c0.776-0.509,1.725-0.767,2.824-0.767
			c0.897,0,1.746,0.167,2.521,0.496c0.771,0.327,1.448,0.814,2.023,1.459c0.262,0.262,0.566,0.396,0.905,0.396
			c0.353,0,0.651-0.102,0.892-0.309c0.32-0.288,0.482-0.633,0.482-1.028c0-0.409-0.15-0.749-0.436-0.984
			c-0.8-0.922-1.773-1.604-2.892-2.028c-1.115-0.423-2.24-0.638-3.345-0.638c-1.285,0-2.455,0.236-3.476,0.702
			c-1.031,0.47-1.86,1.14-2.465,1.993c-0.61,0.862-0.919,1.849-0.919,2.933c0,1.723,0.637,3.05,1.892,3.944
			c1.195,0.853,2.865,1.554,4.961,2.085c1.427,0.363,2.55,0.801,3.338,1.302c0.726,0.462,1.079,1.14,1.079,2.073
			c0,0.958-0.384,1.666-1.172,2.166c-0.826,0.524-1.815,0.789-2.94,0.789c-2.351,0-4.182-0.91-5.596-2.78
			c-0.009-0.012-0.02-0.024-0.03-0.035c-0.312-0.311-0.667-0.469-1.053-0.469c-0.319,0-0.586,0.096-0.794,0.286
			c-0.509,0.291-0.617,0.71-0.617,1.013c0,0.291,0.114,0.616,0.369,1.025c1.848,2.337,4.371,3.521,7.497,3.521
			c1.979,0,3.665-0.505,5.01-1.501c1.376-1.018,2.074-2.407,2.074-4.127c0-1.26-0.292-2.292-0.867-3.069
			C317.373,103.063,316.635,102.463,315.743,102.044z"/>
		<path style="fill:#5C6670;" d="M322.713,94.813c-0.017-0.046-0.028-0.117-0.035-0.215c0-0.112-0.029-0.213-0.088-0.305
			c-0.059-0.091-0.131-0.163-0.217-0.215c0.315-0.093,0.472-0.283,0.472-0.57c0-0.446-0.265-0.67-0.797-0.67h-0.717
			c-0.047,0-0.084,0.017-0.113,0.05c-0.03,0.033-0.044,0.069-0.044,0.108V95c0,0.053,0.019,0.097,0.058,0.133
			c0.04,0.036,0.086,0.054,0.138,0.054c0.052,0,0.099-0.019,0.142-0.059c0.043-0.039,0.065-0.081,0.065-0.127v-0.747h0.363
			c0.111,0,0.195,0.035,0.25,0.102c0.057,0.069,0.084,0.163,0.084,0.28c0,0.171,0.029,0.304,0.088,0.399
			c0.059,0.095,0.131,0.149,0.217,0.162c0.072,0.014,0.137,0.007,0.196-0.019c0.059-0.026,0.095-0.066,0.108-0.119
			c0.014-0.032,0.014-0.064,0-0.093c-0.012-0.03-0.039-0.051-0.079-0.064C322.76,94.889,322.729,94.859,322.713,94.813z
			 M322.325,93.796c-0.086,0.062-0.197,0.093-0.336,0.093h-0.412V93.22h0.442c0.144,0,0.251,0.024,0.325,0.069
			c0.072,0.046,0.108,0.127,0.108,0.246C322.452,93.647,322.409,93.734,322.325,93.796z"/>
		<path style="fill:#5C6670;" d="M323.715,93.009c-0.189-0.322-0.447-0.576-0.771-0.762c-0.325-0.186-0.681-0.279-1.065-0.279
			s-0.74,0.093-1.065,0.279c-0.325,0.186-0.583,0.44-0.771,0.762c-0.189,0.322-0.285,0.682-0.285,1.08s0.096,0.758,0.285,1.084
			c0.189,0.324,0.447,0.579,0.771,0.762c0.326,0.184,0.681,0.274,1.065,0.274s0.741-0.09,1.065-0.274
			c0.325-0.184,0.583-0.438,0.771-0.762c0.19-0.326,0.285-0.686,0.285-1.084S323.906,93.331,323.715,93.009z M323.342,94.973
			c-0.149,0.262-0.35,0.465-0.607,0.611c-0.255,0.146-0.541,0.218-0.857,0.218c-0.315,0-0.603-0.072-0.862-0.218
			c-0.258-0.145-0.464-0.348-0.614-0.611c-0.152-0.262-0.227-0.557-0.227-0.884c0-0.329,0.076-0.624,0.227-0.886
			c0.15-0.262,0.356-0.466,0.614-0.611c0.259-0.145,0.547-0.218,0.862-0.218c0.315,0,0.601,0.073,0.857,0.218
			c0.257,0.145,0.458,0.348,0.607,0.611c0.149,0.262,0.222,0.557,0.222,0.886C323.564,94.416,323.491,94.711,323.342,94.973z"/>
	</g>
</g>
</svg>
